<svg width="512" height="512" viewBox="0 0 512 512" fill="none" xmlns="http://www.w3.org/2000/svg">
<path d="M48.48 378.749C88.4113 425.633 141.782 459.117 201.37 474.669C254.97 485.657 310.664 479.627 360.67 457.419C385.608 445.948 408.243 430.02 427.46 410.419C428.284 409.012 428.535 407.342 428.163 405.755C427.791 404.168 426.823 402.784 425.46 401.889C422.881 400.938 420.051 400.921 417.46 401.839C380.859 420.855 341.548 434.124 300.91 441.179C258.293 445.879 215.179 442.888 173.62 432.349C131.113 418.269 90.9639 397.878 54.52 371.859C53.5909 371.558 52.5938 371.535 51.652 371.794C50.7101 372.053 49.8647 372.582 49.2201 373.316C48.5756 374.05 48.1601 374.956 48.025 375.924C47.8899 376.891 48.0411 377.877 48.46 378.759L48.48 378.749Z" fill="white"/>
<path d="M387.15 388.44C403.267 385.311 419.755 384.56 436.09 386.21L436.76 386.34C439.334 386.964 441.555 388.582 442.936 390.841C444.318 393.1 444.747 395.815 444.13 398.39C440.93 414.295 435.852 429.764 429 444.47C428.802 445.112 428.865 445.806 429.176 446.401C429.487 446.997 430.02 447.445 430.66 447.65C431.035 447.767 431.432 447.795 431.819 447.73C432.206 447.666 432.573 447.512 432.89 447.28C442.534 439.527 450.33 429.722 455.712 418.579C461.093 407.436 463.924 395.234 464 382.86C464.242 379.781 463.329 376.722 461.44 374.279C459.551 371.835 456.821 370.182 453.78 369.64C429.833 365.514 405.213 370.648 384.91 384C384.365 384.396 384 384.992 383.893 385.657C383.786 386.323 383.947 387.003 384.34 387.55C384.656 387.975 385.097 388.289 385.601 388.449C386.106 388.608 386.647 388.605 387.15 388.44Z" fill="white"/>
<path d="M304.24 324.939C295.625 334.477 285.918 342.968 275.32 350.239C255.099 362.187 232.114 368.66 208.63 369.019C187.864 368.566 167.761 361.625 151.14 349.169C137.56 336.754 127.781 320.742 122.938 302.991C118.095 285.241 118.387 266.48 123.78 248.889C128.956 233.305 137.486 219.046 148.768 207.114C160.05 195.182 173.81 185.869 189.08 179.829C223.047 169.623 258.313 164.385 293.78 164.279V127.019C292.625 118.783 288.788 111.157 282.863 105.322C276.937 99.4863 269.253 95.7669 261 94.7391C250.432 93.2998 239.671 94.7084 229.83 98.8191C222.912 102.074 216.854 106.906 212.142 112.928C207.43 118.949 204.196 125.991 202.7 133.489C201.598 135.807 199.781 137.711 197.517 138.921C195.252 140.13 192.66 140.582 190.12 140.209L139.22 135.709C136.942 135.093 134.912 133.785 133.411 131.964C131.91 130.144 131.011 127.902 130.84 125.549C134.914 100.648 147.931 78.0886 167.45 62.0991C193.292 42.0957 225.175 31.487 257.85 32.0191C288.127 32.2961 317.572 41.9643 342.12 59.6891C352.269 68.2641 360.315 79.0542 365.637 91.2283C370.96 103.402 373.417 116.636 372.82 129.909V258.819C373.45 269.663 376.167 280.284 380.82 290.099L396.69 313.329C397.529 315.082 397.965 317.001 397.965 318.944C397.965 320.888 397.529 322.806 396.69 324.559L349.7 364.269C347.739 365.334 345.53 365.855 343.3 365.777C341.07 365.7 338.902 365.027 337.02 363.829C324.773 352.039 313.787 339.005 304.24 324.939ZM293.64 208.109C278.918 207.813 264.197 208.78 249.64 210.999C240.846 212.975 232.577 216.814 225.394 222.259C218.211 227.703 212.279 234.626 208 242.559C204.47 251.223 202.914 260.565 203.445 269.905C203.976 279.246 206.581 288.351 211.07 296.559C216.552 303.408 224.104 308.297 232.596 310.494C241.089 312.691 250.065 312.079 258.18 308.749C267.762 302.605 275.896 294.452 282.018 284.856C288.141 275.26 292.106 264.448 293.64 253.169V208.109Z" fill="white"/>
</svg>
