<svg width="746" height="359" viewBox="0 0 746 359" fill="none" xmlns="http://www.w3.org/2000/svg">
<mask id="path-1-inside-1_131_3965" fill="white">
<path d="M0 179.5C0 80.3649 80.3649 0 179.5 0H566.5C665.635 0 746 80.3649 746 179.5C746 278.635 665.635 359 566.5 359H179.5C80.3649 359 0 278.635 0 179.5Z"/>
</mask>
<path d="M0 179.5C0 80.3649 80.3649 0 179.5 0H566.5C665.635 0 746 80.3649 746 179.5C746 278.635 665.635 359 566.5 359H179.5C80.3649 359 0 278.635 0 179.5Z" fill="#31CDE6"/>
<path d="M179.5 2H566.5V-2H179.5V2ZM566.5 357H179.5V361H566.5V357ZM179.5 357C81.4695 357 2 277.531 2 179.5H-2C-2 279.74 79.2603 361 179.5 361V357ZM744 179.5C744 277.531 664.531 357 566.5 357V361C666.74 361 748 279.74 748 179.5H744ZM566.5 2C664.531 2 744 81.4695 744 179.5H748C748 79.2603 666.74 -2 566.5 -2V2ZM179.5 -2C79.2603 -2 -2 79.2603 -2 179.5H2C2 81.4695 81.4695 2 179.5 2V-2Z" fill="white" mask="url(#path-1-inside-1_131_3965)"/>
</svg>
